Coordinates
nRows=14
nColumns=24

# SIMM Motion File Header:
name Coordinates
datacolumns 24
datarows 14
otherdata 1
range 0.51700000000000002000 0.53000000000000003000
endheader
time	pelvis_tx	pelvis_ty	pelvis_tz	pelvis_tilt	pelvis_list	pelvis_rotation	hip_flexion_r	hip_adduction_r	hip_rotation_r	knee_angle_r	ankle_angle_r	subtalar_angle_r	mtp_angle_r	hip_flexion_l	hip_adduction_l	hip_rotation_l	knee_angle_l	ankle_angle_l	subtalar_angle_l	mtp_angle_l	lumbar_extension	lumbar_bending	lumbar_rotation
      0.51700000000000002000	      1.94748956779445130000	      0.83514243524822285000	     -0.23685360133606062000	     -4.49205163692092400000	      4.84565382944912230000	     -1.44250237522388590000	    -14.41953650043332000000	     -6.13696550146529330000	      0.35878783938834985000	    -26.81676331375463800000	    -19.49157170688060600000	     -0.00000000000004755538	     -0.00000000000013866009	     31.08251910120458600000	      5.72434001652707100000	     10.63173347876669300000	    -22.89718826274332000000	     -4.44922144939164530000	      0.00000000000001375868	     -0.00000000000001610452	     -3.35455811078225130000	     -7.63195052161183800000	      7.32708054335242220000
      0.51800000000000002000	      1.94928011155765060000	      0.83521609875323055000	     -0.23702849724933994000	     -4.48815790595166590000	      4.89704794806350470000	     -1.40868087177544220000	    -14.30218809675854400000	     -6.22450254713993090000	      0.33965990043517380000	    -27.13516118303262900000	    -19.82429496127143100000	     -0.00000000000004752626	     -0.00000000000013915951	     31.04666340807827800000	      5.83369238069671690000	     10.69959576809327800000	    -23.06665606390790300000	     -4.35889785748043490000	      0.00000000000001406504	     -0.00000000000001647774	     -3.35326762596921400000	     -7.67934749970073400000	      7.29230286794850090000
      0.51900000000000002000	      1.95107065532084990000	      0.83528976225823826000	     -0.23720339316261924000	     -4.48426417498240770000	      4.94844206667788810000	     -1.37485936832699700000	    -14.18483969308376500000	     -6.31203959281456850000	      0.32053196148199697000	    -27.45355905231062400000	    -20.15701821566224800000	     -0.00000000000004749715	     -0.00000000000013965892	     31.01080771495196600000	      5.94304474486636370000	     10.76745805741986400000	    -23.23612386507248600000	     -4.26857426556921290000	      0.00000000000001437140	     -0.00000000000001685095	     -3.35197714115617810000	     -7.72674447778963100000	      7.25752519254457780000
      0.52000000000000002000	      1.95285453464217770000	      0.83536856663837922000	     -0.23738056931149679000	     -4.47962189921707040000	      5.00076987605551170000	     -1.33873052862886290000	    -14.06481740022029000000	     -6.40018841943809400000	      0.30047223472328205000	    -27.77462182572862700000	    -20.48134723702430900000	     -0.00000000000004744450	     -0.00000000000014018354	     30.97043586485562700000	      6.05393776012881620000	     10.83283422889316800000	    -23.39946083987294800000	     -4.16488930053597530000	      0.00000000000001467852	     -0.00000000000001715689	     -3.35282850212483390000	     -7.77491261054665730000	      7.21988918897235180000
      0.52100000000000002000	      1.95463667746663130000	      0.83544866335477130000	     -0.23755817899669932000	     -4.47479245319365850000	      5.05332918762961560000	     -1.30210233045655490000	    -13.94410708080485000000	     -6.48849802579397130000	      0.28027730826872671000	    -28.09634955119535600000	    -20.80343135219322900000	     -0.00000000000004739201	     -0.00000000000014070902	     30.92894585712661700000	      6.16515598355599610000	     10.89738939644511700000	    -23.56135346314207600000	     -4.05760713092715970000	      0.00000000000001498776	     -0.00000000000001745177	     -3.35420853513641460000	     -7.82326885886752700000	      7.18156369977110560000
      0.52200000000000002000	      1.95641361080046110000	      0.83553263707991654000	     -0.23773708929087675000	     -4.46940149639602070000	      5.10658300579316200000	     -1.26397605686172350000	    -13.82133268173350500000	     -6.57728997134690370000	      0.25967678272664996000	    -28.42007213280827200000	    -21.11878074878271500000	     -0.00000000000004734004	     -0.00000000000014123705	     30.88410137649960100000	      6.27734983147735810000	     10.95948155223300600000	    -23.71891303181718100000	     -3.93953334759160030000	      0.00000000000001530337	     -0.00000000000001771352	     -3.35717458427677240000	     -7.87218945387992530000	      7.14116975368280120000
      0.52300000000000002000	      1.95819054413429080000	      0.83561661080506189000	     -0.23791599958505419000	     -4.46401053959838380000	      5.15983682395670940000	     -1.22584978326689220000	    -13.69855828266216200000	     -6.66608191689983710000	      0.23907625718457315000	    -28.74379471442118500000	    -21.43413014537220100000	     -0.00000000000004728807	     -0.00000000000014176508	     30.83925689587258000000	      6.38954367939872010000	     11.02157370802089500000	    -23.87647260049228800000	     -3.82145956425604090000	      0.00000000000001561897	     -0.00000000000001797527	     -3.36014063341713020000	     -7.92111004889232360000	      7.10077580759449580000
      0.52400000000000002000	      1.95996093581303010000	      0.83570428164915223000	     -0.23809534084366790000	     -4.45868543459612180000	      5.21407062661807700000	     -1.18659463652482610000	    -13.57214747284450800000	     -6.75565069254203990000	      0.21895221506155543000	    -29.07075788257064600000	    -21.73637308535749900000	     -0.00000000000004729203	     -0.00000000000014211716	     30.79102322783827400000	      6.50248230985470150000	     11.07948938517362900000	    -24.02819384667754900000	     -3.69285949067993170000	      0.00000000000001593784	     -0.00000000000001818066	     -3.36403980613511240000	     -7.97089466777481630000	      7.05842316283152730000
      0.52500000000000002000	      1.96172914694007220000	      0.83579318486622411000	     -0.23827482575709369000	     -4.45338228019231860000	      5.26863109077871880000	     -1.14696319873368210000	    -13.44452452611141900000	     -6.84547841154733310000	      0.19898700074489062000	    -29.39880124623228500000	    -22.03424720647473800000	     -0.00000000000004731464	     -0.00000000000014241059	     30.74165983066820100000	      6.61566920115555580000	     11.13601290278131200000	    -24.17796898536619600000	     -3.56075065369030860000	      0.00000000000001625781	     -0.00000000000001836727	     -3.36825002004563560000	     -8.02096729461400670000	      7.01541761851033830000
      0.52600000000000002000	      1.96349499548765480000	      0.83588309680871231000	     -0.23845410031034742000	     -4.44831561600986710000	      5.32354757373717560000	     -1.10716278575817050000	    -13.31529994304454200000	     -6.93560249169669250000	      0.17952129239331979000	    -29.72819550056974300000	    -22.32638272441173700000	     -0.00000000000004734226	     -0.00000000000014268895	     30.69134186774403600000	      6.72894637904456610000	     11.19071113273104200000	    -24.32554952049239100000	     -3.42655142341869730000	      0.00000000000001658624	     -0.00000000000001858596	     -3.37250197497161700000	     -8.07136415308347390000	      6.97190601055911690000
      0.52700000000000002000	      1.96525375629685930000	      0.83597603492744965000	     -0.23863274378308486000	     -4.44395842249147320000	      5.37953211308907610000	     -1.06685544722955680000	    -13.18127045097631500000	     -7.02661565527825170000	      0.16155410193702754000	    -30.06164242693464300000	    -22.60130243280805100000	     -0.00000000000004738492	     -0.00000000000014292209	     30.63816020755759300000	      6.84249441669804700000	     11.23993349970692900000	    -24.46654624493124400000	     -3.28608101330113730000	      0.00000000000001694005	     -0.00000000000001890090	     -3.37687915294397230000	     -8.12273370644376950000	      6.92687621171780070000
      0.52800000000000002000	      1.96701251710606370000	      0.83606897304618699000	     -0.23881138725582229000	     -4.43960122897307840000	      5.43551665244097750000	     -1.02654810870094320000	    -13.04724095890808800000	     -7.11762881885981090000	      0.14358691148073532000	    -30.39508935329954300000	    -22.87622214120436600000	     -0.00000000000004742759	     -0.00000000000014315522	     30.58497854737115400000	      6.95604245435152800000	     11.28915586668281700000	    -24.60754296937009800000	     -3.14561060318357730000	      0.00000000000001729387	     -0.00000000000001921583	     -3.38125633091632820000	     -8.17410325980406330000	      6.88184641287648540000
      0.52900000000000003000	      1.96876468430427140000	      0.83616456268209127000	     -0.23898887850324990000	     -4.43599092082160420000	      5.49241564430305920000	     -0.98617635099813328000	    -12.90861773689748300000	     -7.20941405048969310000	      0.12752866513552125000	    -30.73225411525590500000	    -23.13539643514252800000	     -0.00000000000004748560	     -0.00000000000014332723	     30.52941418440381600000	      7.06949885940698500000	     11.33278744189792600000	    -24.74253757758343800000	     -3.00308121923150350000	      0.00000000000001763049	     -0.00000000000001959342	     -3.38558124899243350000	     -8.22629589412897740000	      6.83570735882032920000
      0.53000000000000003000	      1.97051465363214720000	      0.83626103615705127000	     -0.23916598567557421000	     -4.43262957445910110000	      5.54961945366853280000	     -0.94578312023725797000	    -12.76846327157276000000	     -7.30145663813568200000	      0.11210673349399752000	    -31.07065815574275200000	    -23.38932225759465700000	     -0.00000000000004754873	     -0.00000000000014347887	     30.47305558717618000000	      7.18292472026309970000	     11.37455541985944900000	    -24.87553148038827900000	     -2.85986551066792760000	      0.00000000000001796138	     -0.00000000000001999191	     -3.38988874710312160000	     -8.27876288877543050000	      6.78919855302589510000
